<?xml version="1.0" standalone="no"?><!DOCTYPE svg PUBLIC "-//W3C//DTD SVG 1.1//EN" "http://www.w3.org/Graphics/SVG/1.1/DTD/svg11.dtd"><svg t="1609319207408" class="icon" viewBox="0 0 1126 1024" version="1.1" xmlns="http://www.w3.org/2000/svg" p-id="3505" xmlns:xlink="http://www.w3.org/1999/xlink" width="219.921875" height="200"><defs><style type="text/css"></style></defs><path d="M0 0m49.916156 0l998.32313 0q49.916156 0 49.916156 49.916156l0 0q0 49.916156-49.916156 49.916157l-998.32313 0q-49.916156 0-49.916156-49.916157l0 0q0-49.916156 49.916156-49.916156Z" fill="#757B7F" p-id="3506"></path><path d="M0 449.245408m49.916156 0l998.32313 0q49.916156 0 49.916156 49.916157l0 0q0 49.916156-49.916156 49.916156l-998.32313 0q-49.916156 0-49.916156-49.916156l0 0q0-49.916156 49.916156-49.916157Z" fill="#757B7F" p-id="3507"></path><path d="M0 898.490816m49.916156 0l998.32313 0q49.916156 0 49.916156 49.916157l0 0q0 49.916156-49.916156 49.916156l-998.32313 0q-49.916156 0-49.916156-49.916156l0 0q0-49.916156 49.916156-49.916157Z" fill="#757B7F" p-id="3508"></path></svg>