<?xml version="1.0" encoding="UTF-8"?>
<svg width="88px" height="88px" viewBox="0 0 88 88" version="1.1" xmlns="http://www.w3.org/2000/svg" xmlns:xlink="http://www.w3.org/1999/xlink">
    <!-- Generator: Sketch 60 (88103) - https://sketch.com -->
    <title>编组 2</title>
    <desc>Created with Sketch.</desc>
    <g id="P5项目管理" stroke="none" stroke-width="1" fill="none" fill-rule="evenodd">
        <g id="用于交互的展示图" transform="translate(-442.000000, -327.000000)">
            <g id="编组-9" transform="translate(442.000000, 317.000000)">
                <g id="编组-2" transform="translate(0.000000, 10.000000)">
                    <g id="组织">
                        <rect id="矩形" fill="#1D9DFF" x="0" y="0" width="88" height="88" rx="16"></rect>
                        <path d="M46.2500005,37.3333323 L46.2500005,42.3333324 L62,42.3333324 L62,42.3333324 C62.9664981,42.3333324 63.7500005,43.0795251 63.7500005,44 L63.7500005,50.6666659 L67.2500005,50.6666659 L67.2500004,50.6666659 C68.216498,50.6666659 69,51.4128586 69,52.3333326 L69,62.3333328 L69,62.3333328 C69,63.2538068 68.216498,64 67.2500004,64 L56.7500004,64 L56.7500003,64 C55.7835026,64 55,63.2538068 55,62.3333328 C55,62.3333328 55,62.3333328 55,62.3333328 L55,52.3333326 L55,52.3333329 C55,51.4128589 55.7835026,50.6666662 56.7500003,50.6666662 L60.2500003,50.6666662 L60.2500003,45.6666661 L46.2500003,45.6666661 L46.2500003,50.6666662 L49.7500003,50.6666662 L49.7500002,50.6666662 C50.7164979,50.6666661 51.5,51.4128589 51.5,52.3333329 L51.5,62.3333331 L51.5,62.3333331 C51.5,63.253807 50.7164979,64 49.7500002,64 L39.2500002,64 L39.2500002,64 C38.2835025,64 37.5,63.253807 37.5,62.3333331 C37.5,62.3333331 37.5,62.3333331 37.5,62.3333331 L37.5,52.3333329 L37.5,52.3333331 C37.5,51.4128591 38.2835025,50.6666664 39.2500002,50.6666664 L42.7500002,50.6666664 L42.7500002,45.6666663 L28.7500002,45.6666663 L28.7500002,50.6666664 L32.2500002,50.6666664 L32.2500001,50.6666664 C33.2164977,50.6666664 34,51.4128591 34,52.3333331 L34,62.3333333 L34,62.3333333 C34,63.2538073 33.2164977,64 32.2500001,64 L21.7500001,64 L21.75,64 C20.7835023,64 20,63.2538073 20,62.3333333 C20,62.3333333 20,62.3333333 20,62.3333333 L20,52.3333331 L20,52.3333334 C20,51.4128594 20.7835023,50.6666667 21.75,50.6666667 L25.25,50.6666667 L25.25,44 L25.25,44 C25.2499999,43.0795262 26.0335023,42.3333334 27,42.3333334 L42.75,42.3333334 L42.75,37.3333333 L39.25,37.3333333 L39.2499999,37.3333333 C38.2835023,37.3333333 37.5,36.5871406 37.5,35.6666666 C37.5,35.6666666 37.5,35.6666666 37.5,35.6666666 L37.5,25.6666664 L37.5,25.6666667 C37.5,24.7461927 38.2835023,24 39.2499999,24 L49.7499999,24 L49.7499998,24 C50.7164975,24 51.5,24.7461927 51.5,25.6666667 L51.5,35.6666669 L51.5,35.6666669 C51.5,36.5871409 50.7164975,37.3333336 49.7499998,37.3333336 L46.2499998,37.3333336 L46.2500005,37.3333323 Z M41.0000005,27.3333321 L41.0000005,33.9999989 L48.0000005,33.9999989 L48.0000005,27.3333321 L41.0000005,27.3333321 Z M41.0000005,53.9999993 L41.0000005,60.6666661 L48.0000005,60.6666661 L48.0000005,53.9999993 L41.0000005,53.9999993 Z M23.5000005,53.9999993 L23.5000005,60.6666661 L30.5000005,60.6666661 L30.5000005,53.9999993 L23.5000005,53.9999993 Z M58.5000005,53.9999993 L58.5000005,60.6666661 L65.5000005,60.6666661 L65.5000005,53.9999993 L58.5000005,53.9999993 Z" id="形状" fill="#FFFFFF" fill-rule="nonzero"></path>
                    </g>
                </g>
            </g>
        </g>
    </g>
</svg>