<?xml version="1.0" standalone="no"?><!DOCTYPE svg PUBLIC "-//W3C//DTD SVG 1.1//EN" "http://www.w3.org/Graphics/SVG/1.1/DTD/svg11.dtd"><svg t="1609319203941" class="icon" viewBox="0 0 1024 1024" version="1.1" xmlns="http://www.w3.org/2000/svg" p-id="3378" xmlns:xlink="http://www.w3.org/1999/xlink" width="200" height="200"><defs><style type="text/css"></style></defs><path d="M511.251692 18.707692C239.182769 18.707692 18.628923 239.261538 18.628923 511.369846c0 272.068923 220.553846 492.622769 492.622769 492.622769 272.108308 0 492.662154-220.553846 492.662154-492.622769C1003.913846 239.261538 783.36 18.707692 511.212308 18.707692z m0 914.51077C278.291692 933.218462 89.403077 744.369231 89.403077 511.369846c0-232.999385 188.888615-421.888 421.848615-421.888 232.999385 0 421.888 188.888615 421.888 421.888 0 232.96-188.888615 421.848615-421.888 421.848616z" fill="#1D9DFF" p-id="3379"></path><path d="M500.972308 246.390154c-72.507077 2.363077-148.598154 38.006154-173.568 148.558769 59.470769 8.310154 87.985231 11.894154 87.98523 11.894154s15.438769-95.074462 110.513231-84.401231c95.113846 10.712615 73.728 82.038154 64.196923 96.295385-9.491692 23.788308-97.476923 80.817231-111.734154 115.278769-14.257231 34.500923-13.075692 98.697846-13.075692 98.697846h85.582769s-4.726154-67.741538 42.811077-96.295384c47.537231-28.553846 128.393846-111.734154 92.711385-191.409231-57.068308-91.490462-112.915692-101.021538-185.422769-98.619077z m-36.864 418.382769h89.166769v97.476923h-89.166769v-97.476923z" fill="#1D9DFF" p-id="3380"></path></svg>