<?xml version="1.0" encoding="UTF-8"?>
<svg width="88px" height="88px" viewBox="0 0 88 88" version="1.1" xmlns="http://www.w3.org/2000/svg" xmlns:xlink="http://www.w3.org/1999/xlink">
    <!-- Generator: Sketch 60 (88103) - https://sketch.com -->
    <title>人员</title>
    <desc>Created with Sketch.</desc>
    <g id="P5项目管理" stroke="none" stroke-width="1" fill="none" fill-rule="evenodd">
        <g id="用于交互的展示图" transform="translate(-56.000000, -327.000000)">
            <g id="编组-9" transform="translate(52.000000, 327.000000)">
                <g id="人员" transform="translate(4.000000, 0.000000)">
                    <rect id="矩形" fill="#1D9DFF" x="0" y="0" width="88" height="88" rx="16"></rect>
                    <path d="M49.4710281,53.3830967 C46.673235,52.6314048 43.5080328,52.433469 41.2925185,49.3898643 C41.2925185,49.3898643 40.1620438,48.0587854 42.7054745,44.8117105 L42.7054747,44.8117102 C45.0165946,41.113175 45.7835963,36.6552437 44.8414667,32.3969926 L44.8414668,32.3969933 C43.9843853,27.9526444 39.6867577,25.0446449 35.2424088,25.9017006 C31.953392,26.5359846 29.3814215,29.1079637 28.747116,32.3969933 L28.747116,32.3969937 C27.8052571,36.6552662 28.5722394,41.1130859 30.8831079,44.8117113 C33.4406023,48.0587733 32.3131525,49.389865 32.3131525,49.389865 C30.1088101,52.4025021 26.9719158,52.6228633 24.193897,53.3688576 L24.1938965,53.3688577 C23.0965936,53.6227032 22.0565725,54.0799226 21.1276816,54.7168448 C17.9042954,57.0824534 18.7011948,62.4717249 18.7011948,62.4717249 L54.9028385,62.4717249 C54.9028385,62.4717249 55.6940445,57.0824491 52.4781349,54.7198526 L52.4781346,54.7198524 C51.565039,54.095215 50.5462444,53.6413355 49.4711951,53.3802313 L49.4710281,53.3830967 Z M49.4710281,53.3830967 L66.9923727,54.7227178 L66.9923726,54.7227177 C66.0800891,54.1010237 65.0605985,53.6535895 63.9854332,53.4030299 C61.1593408,52.6344298 54.6760708,48.0730081 57.2036675,44.809055 L57.2036676,44.8090548 C59.5226551,41.1062013 60.2900263,36.6390102 59.3396595,32.3745716 L59.3396595,32.3745715 C58.5240902,27.9620195 54.2858411,25.0461137 49.8732891,25.8616616 C48.6875823,26.0808158 47.5655165,26.5611335 46.5884877,27.2677683 L46.588488,27.2677688 C47.5331571,28.618304 48.1636641,30.1631054 48.4338046,31.7889459 L48.4338052,31.7889491 C49.3804079,36.6593766 48.6115766,41.7073513 46.2579425,46.0751727 L46.2579426,46.0751727 C45.960079,46.4038767 45.7923069,46.8299196 45.7860679,47.2734651 L45.7860679,47.273465 C45.9804879,48.2893806 46.8082397,49.0637687 47.8348374,49.1901614 L48.7985245,49.4162202 C49.3410657,49.5632474 49.8843203,49.6705809 50.3923275,49.8147606 L50.3923281,49.8147607 C51.9117264,50.1828109 53.3492605,50.830685 54.6313764,51.7252266 L54.6313769,51.7252271 C57.6519074,54.4255712 59.1344212,58.4495435 58.5877636,62.4641185 L69.4198973,62.4641185 C69.4198973,62.4641185 70.2168009,57.0664638 66.9951937,54.7122462 L49.4710281,53.3830967 Z" id="形状" fill="#FFFFFF" fill-rule="nonzero" transform="translate(44.060579, 44.098316) scale(-1, 1) translate(-44.060579, -44.098316) "></path>
                </g>
            </g>
        </g>
    </g>
</svg>