<?xml version="1.0" standalone="no"?><!DOCTYPE svg PUBLIC "-//W3C//DTD SVG 1.1//EN" "http://www.w3.org/Graphics/SVG/1.1/DTD/svg11.dtd"><svg t="1609319038466" class="icon" viewBox="0 0 1024 1024" version="1.1" xmlns="http://www.w3.org/2000/svg" p-id="2996" xmlns:xlink="http://www.w3.org/1999/xlink" width="200" height="200"><defs><style type="text/css"></style></defs><path d="M0 0m512 0l0 0q512 0 512 512l0 0q0 512-512 512l0 0q-512 0-512-512l0 0q0-512 512-512Z" fill="#1D9DFF" p-id="2997"></path><path d="M798.6688 358.656L442.112 716.8h-0.256c-4.5568 4.5312-16.8192 14.6688-30.9504 14.6688-10.1376 0-21.6064-5.6064-31.2064-15.2064L230.4 566.9376a10.624 10.624 0 0 1 0-15.2064l47.4624-47.4624a10.5216 10.5216 0 0 1 7.4752-3.2c2.6624 0 5.3248 1.0752 7.4496 3.2l118.4256 118.4L736.512 294.912a10.5216 10.5216 0 0 1 7.4496-3.2c2.944 0 5.632 1.0496 7.4752 3.2l46.6688 48.256c4.8128 4.5312 4.8128 11.2128 0.512 15.4624z" fill="#FFFFFF" p-id="2998"></path></svg>