<?xml version="1.0" standalone="no"?><!DOCTYPE svg PUBLIC "-//W3C//DTD SVG 1.1//EN" "http://www.w3.org/Graphics/SVG/1.1/DTD/svg11.dtd"><svg t="1609212821185" class="icon" viewBox="0 0 1024 1024" version="1.1" xmlns="http://www.w3.org/2000/svg" p-id="3338" xmlns:xlink="http://www.w3.org/1999/xlink" width="200" height="200"><defs><style type="text/css"></style></defs><path d="M512 0a512 512 0 0 0-512 512 512 512 0 0 0 512 512 512 512 0 0 0 512-512 512 512 0 0 0-512-512z m36.571429 146.285714a36.571429 36.571429 0 1 1 0.073142 73.069715A36.571429 36.571429 0 0 1 548.571429 146.285714z m72.118857 658.285715H403.309714c-20.187429 0-36.425143-13.897143-36.425143-31.158858s16.237714-31.158857 36.425143-31.158857h70.582857V428.032h-71.68c-20.187429 0-36.498286-13.897143-36.498285-31.158857S382.025143 365.714286 402.139429 365.714286h108.178285c20.114286 0 36.425143 13.897143 36.425143 31.158857v345.380571h73.947429c20.187429 0 37.595429 13.897143 37.595428 31.158857S640.877714 804.571429 620.690286 804.571429z" fill="#f4ea2a" p-id="3339"></path></svg>